<svg xmlns="http://www.w3.org/2000/svg" class="css-nm1i6n" width="165" height="55"><path fill="#002C73" d="M83.7 38.5v1.2h-1.4V45c0 2.2 1.4 3.3 3 3.3 1.7 0 3.1-1.2 3.1-3.3v-5.2H87v-1.2h4v1.2h-1.3V45c0 3-2 4.5-4.3 4.5S81 48 81 45v-5.2h-1.3v-1.2h4zm-10.2-.2c3.6 0 5.4 2.8 5.4 5.6s-1.7 5.5-5.4 5.5-5.4-2.7-5.4-5.5c0-3.1 2-5.6 5.4-5.6zm73 0c3.7 0 5.5 2.8 5.5 5.6s-1.8 5.5-5.4 5.5c-3.7 0-5.5-2.7-5.5-5.5 0-3.1 2.1-5.6 5.5-5.6zm8.7.2l6.5 8.2v-7h-1.3v-1.2h4v1.2H163v9.5h-1l-6.5-8.2v7h1.3v1.2h-4V48h1.4v-8.3h-1.4v-1.2zm-15 0v1.2h-1.4V48h1.4v1.2H136V48h1.4v-8.3H136v-1.2h4zm-30.7 0c3.6 0 5.3 2.4 5.3 5.2 0 3-1.6 5.5-5.3 5.5h-5V48h1.2v-8.3h-1.2v-1.2h5zm12.3 0L126 48h1v1.2h-3.7V48h1.3l-.8-2h-5.5l-.8 2h1.3v1.2H115V48h1l2.7-5.8 1-2.5h-1.2v-1.2h3.3zm-27.6 0l6.5 8.2v-7h-1.3v-1.2h4v1.2H102v9.5h-1L94.6 41v7h1.3v1.2h-4V48h1.3v-8.3H92v-1.2zm41 0v2.8H134v-1.6h-2.5V48h1.3v1.2h-4V48h1.3v-8.3h-2.5v1.6h-1.2v-2.8zm-67.9 0v2.8h-1.2v-1.6h-4.5v3.5h4.6v1.2h-4.6V48H63v1.2h-4V48h1.3v-8.3H59v-1.2h8.3zm79.3 1c-2.7 0-4.1 2-4.1 4.4 0 2.1 1.3 4.3 4 4.3 2.9 0 4.2-2.2 4.2-4.3 0-2.2-1.3-4.3-4.1-4.4zm-73 0c-2.8 0-4.2 2-4.2 4.4 0 2.1 1.3 4.3 4.1 4.3s4.1-2.2 4.1-4.3c0-2.2-1.3-4.3-4-4.4zm35.9.2H107V48h2.4c2.8 0 4-2.2 4-4.3 0-2-1.3-4-4-4zm11.6.1l-2.3 5h4.4l-2.1-5zM83.4 22.4v1.3h-1.2l3.1 7.9 3.2-8h-1.2v-1.2H91v1.3h-1l-4 9.5h-1.4l-4-9.5h-1v-1.3zm-20.7 0v1.3h-1.1v4l4.3-4h-1.2v-1.3h3.7v1.3h-.8l-3.8 3.6 3.5 4.6h1.4v1.2h-3v-1l-2.8-4-1.3 1.3v2.5H63v1.2h-4V32h1.3v-8.2h-1.4v-1.3h3.8zm42.6 0v1.3h-1.4v8.2h1.4v1.2h-4V32h1.3v-8.2h-1.3v-1.3zm-9.4 0v1.3h-1.3v8.2h4.6v-1.6h1.2V33H92v-1h1.3v-8.2h-1.4v-1.3h4zm-19.5 0l4.1 9.5h1v1.2h-3.7V32h1.3l-.8-1.9h-5.5l-.8 2h1.3v.9h-3.8v-1h1l2.7-5.8 1.1-2.4h-1.2v-1.3zm-.8 1.3l-2.3 5.1h4.5l-2.2-5zM67.8 6.4v2.8h-1.2V7.6H64v8.3h1.4V17h-4v-1.2h1.3V7.6h-2.5v1.6h-1.3V6.4h8.9zm4.8 0v1.2h-1.3V11h5.9V7.6h-1.3V6.4h4v1.2h-1.4V16h1.3v1H76v-1.2h1.3v-3.7h-5.9V16h1.3v1h-4v-1.2H70V7.6h-1.3V6.4zm17.2 0v2.8h-1.2V7.6h-5V11h5v1.3h-5v3.5h5.2v-1.6H90v2.9h-9v-1.2h1.4V7.6H81V6.4z"/><path fill="#f5333f" d="M47.2 40.7a4.8 4.8 0 01-8.1.2l4-2.4h.2v-5c.8 0 1.5.2 2.2.6 2.2 1.3 3 4.3 1.7 6.6zm-17.7 5.1a6 6 0 00-1.8-1.8c3.7-.7 7-2.7 9.4-5.5 0 .9.3 1.7.7 2.5zm-.2 3.2c0 2.7-2.2 4.8-4.8 4.8a4.8 4.8 0 01-4.3-7l4.2 2.4.1.1h.1l4.2-2.5c.3.7.5 1.4.5 2.2zm-18.1-8a6 6 0 00.7-2.5c2.4 2.8 5.7 4.8 9.4 5.5a6 6 0 00-1.8 1.8zm-2.9 1.4c-1 .7-2.4.8-3.6.5s-2.3-1.1-3-2.2a4.8 4.8 0 014-7.2v5h.1l4.2 2.4c-.4.6-1 1.1-1.7 1.5zM3.5 21a4.8 4.8 0 011.2-9 4.7 4.7 0 015.3 2l-4.2 2.4h-.1v5c-.8 0-1.5-.2-2.2-.6zm16-11.7a6 6 0 002 1.8c-3.9.8-7.2 2.8-9.6 5.6a6 6 0 00-.7-2.6zm.2-3.2c0-2.7 2.2-4.8 4.8-4.8a4.8 4.8 0 014.3 7l-4.2-2.4-.1-.1h-.1l-4.2 2.5c-.3-.7-.5-1.4-.5-2.2zm18.1 8a6 6 0 00-.7 2.6 16.7 16.7 0 00-9.5-5.5 6 6 0 002-2zm2.9-1.4a4.7 4.7 0 016.5 1.7 4.8 4.8 0 01-3.9 7.2v-5h-.1L39 14.1c.3-.6.9-1.1 1.6-1.5zm1.5 25.9l-3.4 2c-.3-.7-.5-1.3-.5-2zm-14 4.6c3-.8 5.8-2.4 7.9-4.6h.7a16.4 16.4 0 01-9 5.2zm-1 2c.5.3 1 .8 1.3 1.3l-3.3 2zm-5.3 0l2 3.3-3.4-2c.4-.5.8-1 1.4-1.4zm-9-6.6c2.1 2.2 4.9 3.8 8 4.6l.3.6c-3.5-.8-6.7-2.6-9-5.2zm-2.2 0c0 .7-.2 1.3-.5 2l-3.4-2h4zm-3.5-4.9l1 .4-2 3.4v-4l1 .2zm.3-11.1a6 6 0 001.2-.5 16.7 16.7 0 000 11 6 6 0 00-2.5-.7v-9.6c.4 0 .8 0 1.3-.2zm-.7-6l3.4-2c.3.7.5 1.3.5 2H6.8zm14-4.5a16 16 0 00-7.8 4.5h-.7c2.3-2.5 5.4-4.4 8.9-5.1zm1.1-2c-.6-.4-1-.9-1.4-1.4l3.3-2L22 10zm5.2 0l-2-3.4 3.4 2c-.4.5-.8 1-1.4 1.4zm9 6.5c-2.2-2.2-4.9-3.8-8-4.5l-.2-.6c3.4.7 6.5 2.6 8.8 5.1H36zm2.2 0c0-.7.2-1.3.5-2l3.4 2zm3.2 16a6 6 0 00-1.2.5 16.7 16.7 0 000-11 6 6 0 002.5.7v9.6a6 6 0 00-1.3.2zm-.7 1.5a4.8 4.8 0 012-.5v3.9zm-11.5 7c1.9 0 3.5-1 4.4-2.5h2.1c-2 2-4.6 3.6-7.5 4.3zm-14-2.5c.9 1.5 2.5 2.5 4.4 2.5l1 1.8c-2.9-.7-5.5-2.2-7.5-4.3zM8.9 22.3l.4.6a16 16 0 000 9.2l-.4.6a16.4 16.4 0 010-10.4zM8.2 21a4.8 4.8 0 01-2 .5v-3.9zm11.5-7c-1.9 0-3.5 1-4.4 2.5h-2c2-2 4.5-3.6 7.4-4.3zm14 2.5a5.4 5.4 0 00-4.4-2.5l-1-1.8c2.9.7 5.5 2.3 7.5 4.3h-2zm9.1 1.1v4a4.8 4.8 0 01-2-.6zm-2.7 15l-.4-.5a16 16 0 000-9.2l.4-.6a16.4 16.4 0 010 10.4zm-10.6 8.1a4.5 4.5 0 013.9-2.2h.1a5.3 5.3 0 01-4 2.3zm-13.9-2.2c1.6 0 3.1.8 3.9 2.2v.1c-1.6 0-3.1-1-4-2.3zm-5.2-13.6a5.5 5.5 0 000 5.2l-1 1.8a15.8 15.8 0 010-8.8l1 1.8zm9.2-10.7h-.1a4.5 4.5 0 01-3.9 2.3h-.1a5.3 5.3 0 014-2.3zm14 2.3h-.2c-1.6 0-3.1-.8-3.9-2.2v-.1c1.6 0 3.1 1 4 2.3zm5 13.6a5.5 5.5 0 000-5.2l1-1.7a15.8 15.8 0 010 8.7zm0 6.3l.3-.3 3.4 2-4-.1c0-.5.1-1 .4-1.6zm-14 7.9h.5c.6 0 1.1.2 1.6.5l-2 3.4v-4zm-.7 0h.4v4l-2-3.5c.5-.3 1-.5 1.6-.5zM10 36l.3.4.3 1.5h-4zm-.4-.8l.2.4-3.3 2 2-3.4 1.1 1zm.8-10.2l.1.1c.8 1.4.8 3.2 0 4.6a5.3 5.3 0 010-4.7zm-.5-5.8l-.2.3c-.3.4-.7.8-1.2 1.1l-2-3.4 3.4 2zm.3-.6l-.2.2-3.4-2 4 .1c0 .6-.2 1.2-.4 1.7zm14-8c-.7 0-1.4-.2-2-.5l2-3.4zm.4-4l2 3.5c-.6.3-1.3.5-2 .6v-4zM38.8 19v-.2c-.3-.6-.5-1.2-.5-1.8h4l-3.5 2zm.3.4v-.1l3.3-2-2 3.4c-.5-.3-1-.8-1.3-1.3zM38.5 30l-.1-.1a4.5 4.5 0 010-4.6 5.3 5.3 0 010 4.7zm.6 5.8l.1-.3 1.2-1.1 2 3.4-3.3-2zm-1.3 0a4.8 4.8 0 01-3.6 2c.9-1 2.1-1.8 3.6-2zm-9.3 5.4c-.8 1.2-2.1 2-3.6 2.1.8-1.2 2.1-2 3.6-2.1zm-8 0c1.5.1 2.8 1 3.6 2.1-1.5-.1-2.8-1-3.6-2.1zm-9.3-5.4c1.5.2 2.7 1 3.6 2a4.9 4.9 0 01-3.6-2zm3.6-18.5c-.9 1.1-2.1 1.9-3.6 2a4.8 4.8 0 013.6-2zm5.7-3.3c.8-1.1 2.1-2 3.6-2-.9 1-2.1 1.8-3.6 2zm4.4-2c1.5 0 2.8.9 3.6 2-1.5-.2-2.7-1-3.6-2zm12.9 7.4c-1.5-.2-2.7-1-3.6-2a4.9 4.9 0 013.6 2zm-3.2 16.3c0-.7-.1-1.3-.3-1.8.8.9 1.9 1.5 3.1 1.8-1.2.2-2.4.9-3.2 1.8.3-.5.4-1.2.4-1.8zm-1 2.2a5.3 5.3 0 01-.1-4.1l.3-.6a5.3 5.3 0 010 4.7h-.2zM25.3 41c0-.7 0-1.3-.3-1.8.8.9 1.9 1.5 3.1 1.7-1.2.3-2.3.9-3 1.8l.2-1.7zM24 39.2a5.5 5.5 0 000 3.5 5.5 5.5 0 00-3.1-1.8c1.2-.2 2.3-.8 3-1.7zm-9.4-3.6c0-1 .2-1.7.6-2.5l.3.6a5.3 5.3 0 01-.1 4H15c-.3-.6-.5-1.3-.5-2.1zm.1-1.8a5.5 5.5 0 000 3.6c-.7-1-1.9-1.6-3.1-1.8 1.2-.3 2.3-1 3.1-1.8zm-3.5-1c0 .8-.1 1.5-.4 2.1a5 5 0 010-4c.3.5.4 1.2.4 2zm-.4-12.7a5.3 5.3 0 010 4 5 5 0 010-4zm3.6-.7c0 .7.1 1.3.3 1.8-.8-.9-1.9-1.5-3.1-1.8 1.2-.2 2.4-.9 3.2-1.8-.3.5-.4 1.2-.4 1.8zm9.9-2.8h-.4c-1.5-.2-2.8-1-3.7-2.2l.1-.2c1.7.1 3.1 1 4 2.4zm-.6-2.6c0 .7 0 1.3.3 1.8-.8-.9-1.9-1.5-3.1-1.7 1.2-.3 2.3-.9 3-1.8l-.2 1.7zm1.3 1.8a5.5 5.5 0 000-3.5c.8 1 2 1.5 3.1 1.8-1.2.2-2.3.8-3 1.7zm3.8-1.4c-.9 1.2-2.2 2-3.7 2.2h-.4a5.3 5.3 0 014-2.4v.2zm5.5 6.8a5.5 5.5 0 000-3.6c.7 1 1.9 1.6 3.1 1.8-1.2.3-2.3 1-3.1 1.8zm3.5 1c0-.8.1-1.5.4-2.1a5 5 0 010 4c-.3-.5-.4-1.2-.4-2zm.4 12.7a5.3 5.3 0 010-4 5 5 0 010 4zm-.2.5c-1.7 0-3-1-4-2.2l4 2.2zm-6.1 1l1.4 1.4c-.6-.1-1.3-.3-1.8-.6zm-3.4 2h.9c0 .7-.2 1.4-.5 2-.2-.6-.4-1.3-.4-2zm-3.9 4.8v-4.6a5.3 5.3 0 010 4.6zm-.2 0a5.3 5.3 0 010-4.6v4.6zm-3.9-4.8c0 .7-.2 1.4-.4 2-.3-.6-.5-1.3-.5-2zm-3.4-2l.4.8c-.5.3-1.2.5-1.8.6.4-.5.9-1 1.4-1.3zm-6-1l3.8-2.2a5.3 5.3 0 01-3.8 2.3zm3.1-2.5c-1.2.2-2.3.9-3.1 1.8a5.5 5.5 0 000-3.6c.8.9 1.9 1.6 3.1 1.8zm0-10.8c-1.2.3-2.3 1-3.1 1.8a5.5 5.5 0 000-3.6c.8 1 1.9 1.6 3.1 1.8zM11 19.6c1.7 0 3 1 4 2.2l-4-2.2zm6.1-1l-1.4-1.4c.6.1 1.3.3 1.8.6zm3.4-2h-.9c0-.7.2-1.4.5-2 .2.7.4 1.3.4 2zm.2 0c0-.6-.1-1.1-.3-1.7.7.8 1.5 1.4 2.5 1.7zm3.7-4.8v4.6a5.3 5.3 0 010-4.6zm.2 0a5.3 5.3 0 010 4.6v-4.6zm3.7 4.8h-2.2c1-.3 1.8-.9 2.5-1.7-.2.6-.3 1.1-.3 1.7zm.2 0c0-.7.2-1.3.4-2 .3.6.5 1.3.5 2zm3.4 2l-.4-.8c.5-.3 1.2-.5 1.8-.6-.4.5-.9 1-1.4 1.3zm6 1l-3.8 2.2a5.3 5.3 0 013.8-2.3zm-3 2.4c1.2-.2 2.3-.9 3.1-1.8a5.5 5.5 0 000 3.6c-.8-.9-1.9-1.5-3.1-1.8zM34 32.8l.3-.6c1-1 2.2-1.8 3.6-1.9l.2.2a5.3 5.3 0 01-4 2.3zm.8 0c1.2-.1 2.3-.8 3.1-1.7a5.5 5.5 0 000 3.6c-.8-1-1.9-1.6-3.1-1.8zm3.3 2.5L34 33c1.7.1 3 1 4 2.2zm-8.5.2l-.1-.3c.9-1.3 2.4-2.1 4-2.2l-.2.4c-.8 1.1-2.2 2-3.7 2zm.5.1c1-.2 2-.7 2.8-1.4l-1.2 2c-.5-.3-1-.5-1.6-.6zm-1.2.6c.3.6.4 1.2.5 2h-.9c0-.7.2-1.4.4-2zm-.6 2.2c0 .6.1 1.1.3 1.6a5.5 5.5 0 00-2.5-1.6zm-5.4 0c-1 .3-1.8.9-2.5 1.6.2-.5.3-1 .3-1.6zm-2.8-2.2c.2.6.4 1.3.4 2h-.9c0-.8.2-1.4.5-2zm-1.2-.6c-.6.1-1.1.3-1.6.6l-1.2-2c.8.7 1.7 1.2 2.8 1.4zM15.4 33c1.7 0 3.2 1 4.1 2.2l-.1.3c-1.5-.2-2.9-1-3.7-2.1zm-4.3-2.7c1.4.1 2.7.8 3.6 2l.3.5c-1.7-.1-3.2-1-4-2.3v-.2zm3.6-7.5a5.3 5.3 0 01-3.6 1.9l-.2-.2c1-1.3 2.4-2.2 4-2.3l-.2.6zm4.2-3.4c-1 .2-2 .7-2.8 1.4l1.2-2c.5.3 1 .5 1.6.6zm1.2-.6c-.3-.6-.5-1.2-.5-2h.9c0 .8-.2 1.4-.4 2zm4.2-2a5.3 5.3 0 01-4 2.5V19c.7-1.2 2-2 3.5-2.2h.5zm4.5 2.3l-.1.2c-1.7-.2-3.1-1-4-2.4h.5c1.5.2 2.8 1 3.6 2.2zm.1-.3c-.2-.6-.4-1.2-.4-2h.9c0 .8-.2 1.4-.5 2zm4 2a5.4 5.4 0 00-2.8-1.4c.6-.1 1.1-.3 1.6-.6l1.2 2zm5 3.9a5.3 5.3 0 01-3.6-2l-.3-.5c1.7.1 3.2 1 4 2.3v.2zm-2 4.8l.4-.8c.6.4 1.1.8 1.5 1.4-.7-.1-1.3-.3-1.9-.6zm0 .1c.4.3 1 .5 1.5.6-1 .2-2 .6-2.7 1.3l1.1-1.9zm-5.8.6c1.3-.3 2.4-1 3.2-1.9a5.4 5.4 0 000 3.7c-.8-1-2-1.6-3.2-1.8zm-.1 2.7l-.3-1.8c.8 1 1.8 1.6 3 1.8-1.2.2-2.2.9-3 1.8l.3-1.8zm-4.7 2.7c0-.6 0-1.2-.2-1.7.7.8 1.8 1.5 3 1.7-1.2.2-2.3.9-3 1.8l.2-1.8zm-4.4 0c1.2-.2 2.3-.9 3-1.7a5.5 5.5 0 000 3.5c-.7-1-1.8-1.6-3-1.8zm-1.6-4.5a5.5 5.5 0 000 3.6 5.4 5.4 0 00-3-1.8c1.2-.2 2.2-.9 3-1.8zm-3.3-1c0-.6 0-1.2-.3-1.8.8 1 2 1.6 3.2 1.9-1.3.2-2.4.9-3.2 1.8l.3-1.8zm-2.8-.5l1 2a5.5 5.5 0 00-2.6-1.4c.6-.1 1-.3 1.6-.6zm-.1-.1c-.6.3-1.2.5-1.9.6.4-.6.9-1 1.5-1.4zm0-4l-.4.8c-.6-.4-1-.8-1.5-1.4.7.1 1.3.3 1.9.6zm0-.1c-.4-.3-1-.5-1.5-.6 1-.2 2-.6 2.7-1.3l-1.1 1.9zm5.8-.6c-1.3.3-2.4 1-3.2 1.9a5.4 5.4 0 000-3.7c.8 1 2 1.6 3.2 1.8zm.4-4.5a5.5 5.5 0 000 3.6 5.4 5.4 0 00-3-1.8c1.2-.2 2.3-.9 3-1.8zm.2-.5a5.3 5.3 0 01-4 2.2l.2-.4c.8-1.1 2.2-2 3.7-2l.1.2zm4.2-.4c0 .6 0 1.2.2 1.7a5.4 5.4 0 00-3-1.7c1.2-.2 2.3-.9 3-1.8l-.2 1.8zm1.4 1.7a5.5 5.5 0 000-3.5c.7 1 1.8 1.6 3 1.8-1.2.2-2.3.9-3 1.7zm8.5 1c-1.7-.2-3.2-1-4.1-2.3l.1-.3c1.5.2 2.9 1 3.7 2.1zm-4 1.8a5.5 5.5 0 000-3.6c.9 1 2 1.6 3.2 1.8-1.3.2-2.3.9-3.1 1.8zm3.4 1c0 .6 0 1.2.3 1.8-.8-1-2-1.6-3.2-1.9 1.3-.2 2.4-.9 3.2-1.8l-.3 1.8zm2.8.5l-1-2c.7.8 1.6 1.2 2.6 1.4-.6.1-1 .3-1.6.6zm.1.1c.6-.3 1.2-.5 1.9-.6-.4.6-.9 1-1.5 1.4zM34.2 28c.7 0 1.3.3 1.9.6l-.4.7c-.6-.3-1-.8-1.5-1.3zm0 .4c.4.4.9.8 1.4 1l-1.2 2a5.5 5.5 0 00-.1-3zm-1.7-.2l.8-.2c-.8 1-2 1.8-3.5 2 .7-.9 1.6-1.6 2.7-1.8zm-2.9 2.2v-.1c1.6.2 3 1 3.9 2.3zm0 .1l3.8 2.3c-1.6-.1-3-1-3.9-2.2zm-.2.3a5.3 5.3 0 010 4.1 5 5 0 010-4zm-1 4.6c-1.4-.1-2.6-.9-3.4-2 1.4.2 2.6 1 3.4 2zm-3.7-2a5.3 5.3 0 01-.1 4.5v-4.5zm-.3 0V38a5.3 5.3 0 010-4.5zm-.4 0c-.8 1.1-2 1.9-3.4 2 .8-1 2-1.8 3.4-2zm-4.4-2.6a5 5 0 010 4.1 5.3 5.3 0 010-4zm-.1-.3c-.9 1.3-2.3 2.2-3.9 2.3zm-.2-.2l-3.8 2.3a5.3 5.3 0 013.8-2.3zm-2.8-2.1c1 .2 2 1 2.7 1.8-1.4-.2-2.7-1-3.5-2 .3 0 .5 0 .8.2zm-1.8.2a5.5 5.5 0 00-.1 3l-1.2-2c.5-.2 1-.6 1.3-1zm0-.4c-.3.5-.8 1-1.4 1.3l-.4-.7c.6-.3 1.2-.5 1.9-.6zm0-1c-.6 0-1.2-.3-1.8-.6l.4-.7c.6.3 1 .8 1.5 1.3zm0-.4c-.3-.4-.8-.8-1.3-1l1.2-2a5.5 5.5 0 00.1 3zm1.8.3h-.8c.8-1 2-1.7 3.5-2-.7 1-1.6 1.7-2.7 2zm2.9-2.3v.1c-1.6-.2-3-1-3.9-2.3zm0-.1l-3.8-2.3c1.6.1 3 1 4 2.2zm.3-.3a5.3 5.3 0 010-4.1 5 5 0 010 4zm.8-4.7c1.5.2 2.7 1 3.6 2.1-1.5-.1-2.8-1-3.6-2zm3.8 2.1a5.3 5.3 0 01.1-4.5v4.5zm.3 0v-4.5a5.3 5.3 0 010 4.5zm.3 0a5.3 5.3 0 013.6-2c-.8 1-2.1 1.9-3.6 2zm4.5-1.5a5.3 5.3 0 010 4 5 5 0 010-4zm.1 4.4c.9-1.3 2.3-2.2 3.9-2.3l-3.9 2.3zm.1.1l3.9-2.2a5.3 5.3 0 01-3.9 2.3zm3 2.2c-1.2-.2-2.1-1-2.8-1.8 1.4.2 2.7 1 3.5 2a5 5 0 01-.8-.1zm1.7-.2a5.5 5.5 0 00.1-3l1.2 2c-.5.2-1 .6-1.3 1zm0 .4c.3-.5.8-1 1.4-1.3l.4.7c-.6.3-1.2.5-1.9.6zm-9.9-4.3V27a5.3 5.3 0 010-4.4zm.7 2c0 1-.2 1.7-.5 2.4v-4.4c.4.6.5 1.3.5 2zm3.4 2.8c0-.7.1-1.4.4-2a4.9 4.9 0 010 4.1c-.2-.6-.4-1.4-.4-2.1zm-3.6.1c1.6.1 3 1 3.9 2.2zm-.1.2l3.9 2.2c-1.6 0-3-1-4-2.2zm.2.6c.8.9 1.9 1.5 3.1 1.8-1.2.2-2.3.8-3 1.7a5.5 5.5 0 000-3.5zm-.4 4V28a5.3 5.3 0 010 4.5zm-.3 0a5.3 5.3 0 01.1-4.5v4.6zm-.3-4a5.5 5.5 0 000 3.5 5.4 5.4 0 00-3.1-1.7c1.2-.3 2.3-.9 3-1.8zm.2-.6a5.3 5.3 0 01-3.9 2.3l4-2.3zm0-.2l-4 2.3a5.2 5.2 0 014-2.3zm-.7-.1c-1.2.2-2.3.9-3.1 1.8a5.5 5.5 0 000-3.6c.8 1 1.9 1.6 3 1.8zm.6-.1c-1.6-.1-3-1-3.9-2.2zm4.5-1.7a5.5 5.5 0 000 3.6 5.5 5.5 0 00-3-1.8c1.1-.2 2.2-.9 3-1.8zm-3.7 1.7l3.8-2.2c-.8 1.2-2.2 2-3.8 2.2zm3.7-2.5l-3.8 2.3a5.3 5.3 0 013.8-2.3zM25 22.7c1.4.1 2.6.9 3.4 2-1.4-.2-2.6-1-3.4-2zm3.1 2.1c-1.2.3-2.3.9-3 1.8a5.5 5.5 0 000-3.5c.7.9 1.8 1.5 3 1.7zm-3.9 2.4L20.4 25c1.6.1 3 1 3.8 2.2zm-.3-4.1a5.5 5.5 0 000 3.5 5.5 5.5 0 00-3-1.8c1.2-.2 2.3-.8 3-1.7zm-3.3 1.6c.8-1.1 2-1.9 3.4-2-.8 1-2 1.8-3.4 2zm-1 2.9c0-.8.2-1.5.5-2.1a5.3 5.3 0 010 4.1c-.3-.6-.5-1.3-.5-2zm.9 2.7c1.5.2 2.8 1 3.6 2.2-1.5-.2-2.8-1-3.6-2.2zm8 0c-.8 1.2-2.1 2-3.6 2.2.8-1.2 2.1-2 3.6-2.2zm5.5-7.6a5.3 5.3 0 01-.1 4.3h-.2a5.3 5.3 0 010-4.6zm-18.7-.3a5.3 5.3 0 010 4.6h-.2a5.3 5.3 0 010-4.3zm-.3 9.9a5.3 5.3 0 01.1-4.3h.3a5.3 5.3 0 01-.1 4.6zm18.8.3a5.3 5.3 0 01-.2-4.6h.4a5.3 5.3 0 010 4.3zm-13.1 5.5c0-.5-.1-1.1-.3-1.6.7.7 1.5 1.3 2.5 1.6zm3.1 0c-1.5-.2-2.7-1-3.6-2.1l.2-.3c1.6.2 3 1.1 3.9 2.4zm.9 0a5.3 5.3 0 014-2.4v.3c-.8 1.1-2 2-3.5 2.1h-.5zm1.4 0c1-.3 1.8-.9 2.5-1.6-.2.5-.3 1-.3 1.6zm12-18.3a5.3 5.3 0 01-4 2.2l4-2.2zm-5 .8l-1.1-2c.5-.2.9-.6 1.3-1a5.3 5.3 0 00-.2 3zm-1.5-2c-.5.4-1.1.6-1.8.7.4-.6.9-1 1.4-1.4zM28.3 17c0 .5.1 1.1.3 1.6a5.5 5.5 0 00-2.5-1.6zm-5.4 0c-1 .3-1.8.9-2.5 1.6.2-.5.3-1 .3-1.6zm-5.1 1c.5.4 1 .8 1.4 1.4-.7-.1-1.3-.3-1.8-.6zm-2 .1v-.4c.3.4.7.8 1.2 1l-1 2c.1-.9.1-1.7-.1-2.6zM11 19.8l4 2.2c-1.7-.1-3-1-4-2.2zm0 15.5a5.3 5.3 0 014-2.3l-4 2.2zm6.5 1c.5-.3 1.1-.5 1.8-.6-.4.6-.9 1-1.4 1.4zm13.8.8c-.5-.4-1-.8-1.4-1.4.7.1 1.3.3 1.8.6zM34 17.2a5.3 5.3 0 01-.1 4.7l-.3-.6a5.3 5.3 0 01.1-4h.3zm-18.7 0h.2a5.3 5.3 0 01.1 4.1l-.3.6a5.3 5.3 0 010-4.7zm.7 17.2l1.1 2c-.5.2-.9.6-1.3 1a5.3 5.3 0 00.2-3zm4.3 6.2c.8-1.2 2.1-2 3.6-2.2h.5a5.3 5.3 0 01-4 2.4l-.1-.2zm8.5.2c-1.7-.1-3.1-1-4-2.4h.5c1.5.2 2.8 1 3.6 2.2l-.1.2zm4.4-3.8l.2.4c-.4-.4-.8-.8-1.3-1l1-2c-.1.9-.1 1.7.1 2.6zm13-3.9c-1-.5-1.8-.8-2.8-.8v-9.6A6 6 0 0044.6 11a5.9 5.9 0 00-6.5 2.5l-8.3-4.8a6 6 0 10-10.6 0L11 13.5a6 6 0 00-10.2.3 6 6 0 004.9 8.9v9.6a6 6 0 00.3 12 5.9 5.9 0 005-2.8l8.2 4.8a6 6 0 1010.6 0l8.3-4.8a6 6 0 0010.1-.3 6 6 0 00-2.2-8.1z"/></svg>